<mxfile host="65bd71144e">
    <diagram id="rx3x-a1ESHjoJCD_vc8R" name="Page-1">
        <mxGraphModel dx="2189" dy="2044" grid="1" gridSize="10" guides="1" tooltips="1" connect="1" arrows="1" fold="1" page="1" pageScale="1" pageWidth="1520" pageHeight="600" math="1" shadow="0">
            <root>
                <mxCell id="0"/>
                <mxCell id="1" parent="0"/>
                <mxCell id="139" value="" style="rounded=1;whiteSpace=wrap;html=1;fontSize=14;fillColor=none;gradientColor=none;" vertex="1" parent="1">
                    <mxGeometry x="1205" y="360" width="310" height="220" as="geometry"/>
                </mxCell>
                <mxCell id="111" value="" style="rounded=1;whiteSpace=wrap;html=1;fontSize=14;fillColor=none;gradientColor=none;" vertex="1" parent="1">
                    <mxGeometry x="835" y="360" width="310" height="220" as="geometry"/>
                </mxCell>
                <mxCell id="83" value="" style="rounded=1;whiteSpace=wrap;html=1;fontSize=14;fillColor=none;gradientColor=none;" parent="1" vertex="1">
                    <mxGeometry y="360" width="310" height="220" as="geometry"/>
                </mxCell>
                <mxCell id="97" value="" style="rounded=1;whiteSpace=wrap;html=1;fontSize=14;fillColor=none;gradientColor=none;" vertex="1" parent="1">
                    <mxGeometry x="385" y="360" width="310" height="220" as="geometry"/>
                </mxCell>
                <mxCell id="46" value="" style="shape=table;startSize=0;container=1;collapsible=0;childLayout=tableLayout;fontSize=16;points=[[0,0,0,0,0],[0,0.25,0,0,0],[0,0.5,0,0,0],[0,0.75,0,0,0],[0,1,0,0,0],[0.25,0,0,0,0],[0.25,1,0,0,0],[0.5,0,0,0,0],[0.5,1,0,0,0],[0.75,0,0,0,0],[0.75,1,0,0,0],[1,0,0,0,0],[1,0.25,0,0,0],[1,0.5,0,0,0],[1,0.75,0,0,0],[1,1,0,0,0]];fillColor=none;gradientColor=none;perimeterSpacing=1;rounded=1;swimlaneHead=0;swimlaneBody=0;top=0;bottom=0;left=0;right=0;swimlaneFillColor=none;" parent="1" vertex="1">
                    <mxGeometry x="5" y="370" width="300" height="200" as="geometry"/>
                </mxCell>
                <mxCell id="47" value="" style="shape=tableRow;horizontal=0;startSize=0;swimlaneHead=0;swimlaneBody=0;strokeColor=inherit;top=0;left=0;bottom=0;right=0;collapsible=0;dropTarget=0;fillColor=none;points=[[0,0.5],[1,0.5]];portConstraint=eastwest;fontSize=16;" parent="46" vertex="1">
                    <mxGeometry width="300" height="67" as="geometry"/>
                </mxCell>
                <mxCell id="48" value="" style="shape=partialRectangle;html=1;whiteSpace=wrap;connectable=0;strokeColor=inherit;overflow=hidden;fillColor=none;top=0;left=0;bottom=0;right=0;pointerEvents=1;fontSize=16;" parent="47" vertex="1">
                    <mxGeometry width="99" height="67" as="geometry">
                        <mxRectangle width="99" height="67" as="alternateBounds"/>
                    </mxGeometry>
                </mxCell>
                <mxCell id="49" value="&lt;font style=&quot;font-size: 14px;&quot;&gt;$$\text{Disease}=0$$&lt;/font&gt;" style="shape=partialRectangle;html=1;whiteSpace=wrap;connectable=0;strokeColor=inherit;overflow=hidden;fillColor=none;top=0;left=0;bottom=0;right=0;pointerEvents=1;fontSize=16;" parent="47" vertex="1">
                    <mxGeometry x="99" width="102" height="67" as="geometry">
                        <mxRectangle width="102" height="67" as="alternateBounds"/>
                    </mxGeometry>
                </mxCell>
                <mxCell id="50" value="&lt;font style=&quot;font-size: 14px;&quot;&gt;$$\text{Disease}=1$$&lt;/font&gt;" style="shape=partialRectangle;html=1;whiteSpace=wrap;connectable=0;strokeColor=inherit;overflow=hidden;fillColor=none;top=0;left=0;bottom=0;right=0;pointerEvents=1;fontSize=16;" parent="47" vertex="1">
                    <mxGeometry x="201" width="99" height="67" as="geometry">
                        <mxRectangle width="99" height="67" as="alternateBounds"/>
                    </mxGeometry>
                </mxCell>
                <mxCell id="51" value="" style="shape=tableRow;horizontal=0;startSize=0;swimlaneHead=0;swimlaneBody=0;strokeColor=inherit;top=0;left=0;bottom=0;right=0;collapsible=0;dropTarget=0;fillColor=none;points=[[0,0.5],[1,0.5]];portConstraint=eastwest;fontSize=16;" parent="46" vertex="1">
                    <mxGeometry y="67" width="300" height="66" as="geometry"/>
                </mxCell>
                <mxCell id="52" value="&lt;font style=&quot;font-size: 14px;&quot;&gt;$$\text{Obesity}=0$$&lt;/font&gt;" style="shape=partialRectangle;html=1;whiteSpace=wrap;connectable=0;strokeColor=inherit;overflow=hidden;fillColor=none;top=0;left=0;bottom=0;right=0;pointerEvents=1;fontSize=16;" parent="51" vertex="1">
                    <mxGeometry width="99" height="66" as="geometry">
                        <mxRectangle width="99" height="66" as="alternateBounds"/>
                    </mxGeometry>
                </mxCell>
                <mxCell id="53" value="&lt;font style=&quot;font-size: 14px;&quot;&gt;$$n_{1100}$$&lt;/font&gt;" style="shape=partialRectangle;html=1;whiteSpace=wrap;connectable=0;strokeColor=inherit;overflow=hidden;fillColor=none;top=0;left=0;bottom=0;right=0;pointerEvents=1;fontSize=16;" parent="51" vertex="1">
                    <mxGeometry x="99" width="102" height="66" as="geometry">
                        <mxRectangle width="102" height="66" as="alternateBounds"/>
                    </mxGeometry>
                </mxCell>
                <mxCell id="54" value="&lt;font style=&quot;font-size: 14px;&quot;&gt;$$n_{1101}$$&lt;/font&gt;" style="shape=partialRectangle;html=1;whiteSpace=wrap;connectable=0;strokeColor=inherit;overflow=hidden;fillColor=none;top=0;left=0;bottom=0;right=0;pointerEvents=1;fontSize=16;" parent="51" vertex="1">
                    <mxGeometry x="201" width="99" height="66" as="geometry">
                        <mxRectangle width="99" height="66" as="alternateBounds"/>
                    </mxGeometry>
                </mxCell>
                <mxCell id="55" value="" style="shape=tableRow;horizontal=0;startSize=0;swimlaneHead=0;swimlaneBody=0;strokeColor=inherit;top=0;left=0;bottom=0;right=0;collapsible=0;dropTarget=0;fillColor=none;points=[[0,0.5],[1,0.5]];portConstraint=eastwest;fontSize=16;" parent="46" vertex="1">
                    <mxGeometry y="133" width="300" height="67" as="geometry"/>
                </mxCell>
                <mxCell id="56" value="&lt;font style=&quot;font-size: 14px;&quot;&gt;$$\text{Obesity}=1$$&lt;/font&gt;" style="shape=partialRectangle;html=1;whiteSpace=wrap;connectable=0;strokeColor=inherit;overflow=hidden;fillColor=none;top=0;left=0;bottom=0;right=0;pointerEvents=1;fontSize=16;" parent="55" vertex="1">
                    <mxGeometry width="99" height="67" as="geometry">
                        <mxRectangle width="99" height="67" as="alternateBounds"/>
                    </mxGeometry>
                </mxCell>
                <mxCell id="57" value="&lt;font style=&quot;font-size: 14px;&quot;&gt;$$n_{1110}$$&lt;/font&gt;" style="shape=partialRectangle;html=1;whiteSpace=wrap;connectable=0;strokeColor=inherit;overflow=hidden;fillColor=none;top=0;left=0;bottom=0;right=0;pointerEvents=1;fontSize=16;" parent="55" vertex="1">
                    <mxGeometry x="99" width="102" height="67" as="geometry">
                        <mxRectangle width="102" height="67" as="alternateBounds"/>
                    </mxGeometry>
                </mxCell>
                <mxCell id="58" value="&lt;font style=&quot;font-size: 14px;&quot;&gt;$$n_{1111}$$&lt;/font&gt;" style="shape=partialRectangle;html=1;whiteSpace=wrap;connectable=0;strokeColor=inherit;overflow=hidden;fillColor=none;top=0;left=0;bottom=0;right=0;pointerEvents=1;fontSize=16;" parent="55" vertex="1">
                    <mxGeometry x="201" width="99" height="67" as="geometry">
                        <mxRectangle width="99" height="67" as="alternateBounds"/>
                    </mxGeometry>
                </mxCell>
                <mxCell id="2" value="&lt;font style=&quot;font-size: 20px;&quot;&gt;$$\text{Family History ?}$$&lt;/font&gt;" style="rounded=1;whiteSpace=wrap;html=1;fillColor=#FFF2CC;opacity=50;" parent="1" vertex="1">
                    <mxGeometry x="645" width="240" height="80" as="geometry"/>
                </mxCell>
                <mxCell id="4" value="&lt;font style=&quot;font-size: 20px;&quot;&gt;$$\text{Smoking ?}$$&lt;/font&gt;" style="rounded=1;whiteSpace=wrap;html=1;fillColor=#DAE8FC;strokeColor=#23445d;opacity=50;" parent="1" vertex="1">
                    <mxGeometry x="1095" y="150" width="160" height="80" as="geometry"/>
                </mxCell>
                <mxCell id="74" value="&lt;font style=&quot;font-size: 20px;&quot;&gt;$$\text{Smoking ?}$$&lt;/font&gt;" style="rounded=1;whiteSpace=wrap;html=1;fillColor=#DAE8FC;strokeColor=#23445d;opacity=50;" parent="1" vertex="1">
                    <mxGeometry x="275" y="150" width="160" height="80" as="geometry"/>
                </mxCell>
                <mxCell id="75" value="" style="endArrow=classic;html=1;fontSize=14;exitX=0.25;exitY=1;exitDx=0;exitDy=0;entryX=0.5;entryY=0;entryDx=0;entryDy=0;strokeWidth=4;opacity=90;strokeColor=#000000;" parent="1" source="2" target="74" edge="1">
                    <mxGeometry width="50" height="50" relative="1" as="geometry">
                        <mxPoint x="835" y="480" as="sourcePoint"/>
                        <mxPoint x="885" y="430" as="targetPoint"/>
                    </mxGeometry>
                </mxCell>
                <mxCell id="76" value="" style="endArrow=classic;html=1;fontSize=14;exitX=0.75;exitY=1;exitDx=0;exitDy=0;entryX=0.5;entryY=0;entryDx=0;entryDy=0;strokeWidth=4;" parent="1" source="2" target="4" edge="1">
                    <mxGeometry width="50" height="50" relative="1" as="geometry">
                        <mxPoint x="715" y="90" as="sourcePoint"/>
                        <mxPoint x="365" y="160" as="targetPoint"/>
                    </mxGeometry>
                </mxCell>
                <mxCell id="77" value="" style="endArrow=classic;html=1;fontSize=14;exitX=0.75;exitY=1;exitDx=0;exitDy=0;entryX=0.5;entryY=0;entryDx=0;entryDy=0;strokeWidth=4;" parent="1" source="4" edge="1">
                    <mxGeometry width="50" height="50" relative="1" as="geometry">
                        <mxPoint x="835" y="90" as="sourcePoint"/>
                        <mxPoint x="1365" y="360" as="targetPoint"/>
                    </mxGeometry>
                </mxCell>
                <mxCell id="78" value="" style="endArrow=classic;html=1;fontSize=14;exitX=0.25;exitY=1;exitDx=0;exitDy=0;entryX=0.5;entryY=0;entryDx=0;entryDy=0;strokeWidth=4;" parent="1" source="4" edge="1">
                    <mxGeometry width="50" height="50" relative="1" as="geometry">
                        <mxPoint x="1225.0000000000005" y="239.99999999999977" as="sourcePoint"/>
                        <mxPoint x="985" y="360" as="targetPoint"/>
                    </mxGeometry>
                </mxCell>
                <mxCell id="79" value="" style="endArrow=classic;html=1;fontSize=14;exitX=0.75;exitY=1;exitDx=0;exitDy=0;entryX=0.5;entryY=0;entryDx=0;entryDy=0;strokeWidth=4;" parent="1" source="74" edge="1">
                    <mxGeometry width="50" height="50" relative="1" as="geometry">
                        <mxPoint x="715" y="90" as="sourcePoint"/>
                        <mxPoint x="545" y="360" as="targetPoint"/>
                    </mxGeometry>
                </mxCell>
                <mxCell id="80" value="" style="endArrow=classic;html=1;fontSize=14;exitX=0.25;exitY=1;exitDx=0;exitDy=0;strokeWidth=4;entryX=0.5;entryY=0;entryDx=0;entryDy=0;" parent="1" source="74" edge="1" target="83">
                    <mxGeometry width="50" height="50" relative="1" as="geometry">
                        <mxPoint x="405.00000000000045" y="239.99999999999977" as="sourcePoint"/>
                        <mxPoint x="165" y="360" as="targetPoint"/>
                    </mxGeometry>
                </mxCell>
                <mxCell id="81" value="&lt;font style=&quot;font-size: 20px;&quot;&gt;$$\text{True}$$&lt;/font&gt;" style="text;html=1;strokeColor=none;fillColor=none;align=center;verticalAlign=middle;whiteSpace=wrap;rounded=0;fontSize=14;" parent="1" vertex="1">
                    <mxGeometry x="485" y="70" width="60" height="30" as="geometry"/>
                </mxCell>
                <mxCell id="82" value="&lt;font style=&quot;font-size: 20px;&quot;&gt;$$\text{False}$$&lt;/font&gt;" style="text;html=1;strokeColor=none;fillColor=none;align=center;verticalAlign=middle;whiteSpace=wrap;rounded=0;fontSize=14;" parent="1" vertex="1">
                    <mxGeometry x="1005" y="70" width="60" height="30" as="geometry"/>
                </mxCell>
                <mxCell id="84" value="" style="shape=table;startSize=0;container=1;collapsible=0;childLayout=tableLayout;fontSize=16;points=[[0,0,0,0,0],[0,0.25,0,0,0],[0,0.5,0,0,0],[0,0.75,0,0,0],[0,1,0,0,0],[0.25,0,0,0,0],[0.25,1,0,0,0],[0.5,0,0,0,0],[0.5,1,0,0,0],[0.75,0,0,0,0],[0.75,1,0,0,0],[1,0,0,0,0],[1,0.25,0,0,0],[1,0.5,0,0,0],[1,0.75,0,0,0],[1,1,0,0,0]];fillColor=none;gradientColor=none;perimeterSpacing=1;rounded=1;swimlaneHead=0;swimlaneBody=0;top=0;bottom=0;left=0;right=0;swimlaneFillColor=none;" vertex="1" parent="1">
                    <mxGeometry x="390" y="370" width="300" height="200" as="geometry"/>
                </mxCell>
                <mxCell id="85" value="" style="shape=tableRow;horizontal=0;startSize=0;swimlaneHead=0;swimlaneBody=0;strokeColor=inherit;top=0;left=0;bottom=0;right=0;collapsible=0;dropTarget=0;fillColor=none;points=[[0,0.5],[1,0.5]];portConstraint=eastwest;fontSize=16;" vertex="1" parent="84">
                    <mxGeometry width="300" height="67" as="geometry"/>
                </mxCell>
                <mxCell id="86" value="" style="shape=partialRectangle;html=1;whiteSpace=wrap;connectable=0;strokeColor=inherit;overflow=hidden;fillColor=none;top=0;left=0;bottom=0;right=0;pointerEvents=1;fontSize=16;" vertex="1" parent="85">
                    <mxGeometry width="99" height="67" as="geometry">
                        <mxRectangle width="99" height="67" as="alternateBounds"/>
                    </mxGeometry>
                </mxCell>
                <mxCell id="87" value="&lt;font style=&quot;font-size: 14px;&quot;&gt;$$\text{Disease}=0$$&lt;/font&gt;" style="shape=partialRectangle;html=1;whiteSpace=wrap;connectable=0;strokeColor=inherit;overflow=hidden;fillColor=none;top=0;left=0;bottom=0;right=0;pointerEvents=1;fontSize=16;" vertex="1" parent="85">
                    <mxGeometry x="99" width="102" height="67" as="geometry">
                        <mxRectangle width="102" height="67" as="alternateBounds"/>
                    </mxGeometry>
                </mxCell>
                <mxCell id="88" value="&lt;font style=&quot;font-size: 14px;&quot;&gt;$$\text{Disease}=1$$&lt;/font&gt;" style="shape=partialRectangle;html=1;whiteSpace=wrap;connectable=0;strokeColor=inherit;overflow=hidden;fillColor=none;top=0;left=0;bottom=0;right=0;pointerEvents=1;fontSize=16;" vertex="1" parent="85">
                    <mxGeometry x="201" width="99" height="67" as="geometry">
                        <mxRectangle width="99" height="67" as="alternateBounds"/>
                    </mxGeometry>
                </mxCell>
                <mxCell id="89" value="" style="shape=tableRow;horizontal=0;startSize=0;swimlaneHead=0;swimlaneBody=0;strokeColor=inherit;top=0;left=0;bottom=0;right=0;collapsible=0;dropTarget=0;fillColor=none;points=[[0,0.5],[1,0.5]];portConstraint=eastwest;fontSize=16;" vertex="1" parent="84">
                    <mxGeometry y="67" width="300" height="66" as="geometry"/>
                </mxCell>
                <mxCell id="90" value="&lt;font style=&quot;font-size: 14px;&quot;&gt;$$\text{Obesity}=0$$&lt;/font&gt;" style="shape=partialRectangle;html=1;whiteSpace=wrap;connectable=0;strokeColor=inherit;overflow=hidden;fillColor=none;top=0;left=0;bottom=0;right=0;pointerEvents=1;fontSize=16;" vertex="1" parent="89">
                    <mxGeometry width="99" height="66" as="geometry">
                        <mxRectangle width="99" height="66" as="alternateBounds"/>
                    </mxGeometry>
                </mxCell>
                <mxCell id="91" value="$$n_{1000}$$" style="shape=partialRectangle;html=1;whiteSpace=wrap;connectable=0;strokeColor=inherit;overflow=hidden;fillColor=none;top=0;left=0;bottom=0;right=0;pointerEvents=1;fontSize=16;" vertex="1" parent="89">
                    <mxGeometry x="99" width="102" height="66" as="geometry">
                        <mxRectangle width="102" height="66" as="alternateBounds"/>
                    </mxGeometry>
                </mxCell>
                <mxCell id="92" value="&lt;span style=&quot;color: rgb(0, 0, 0);&quot;&gt;$$n_{1001}$$&lt;/span&gt;" style="shape=partialRectangle;html=1;whiteSpace=wrap;connectable=0;strokeColor=inherit;overflow=hidden;fillColor=none;top=0;left=0;bottom=0;right=0;pointerEvents=1;fontSize=16;" vertex="1" parent="89">
                    <mxGeometry x="201" width="99" height="66" as="geometry">
                        <mxRectangle width="99" height="66" as="alternateBounds"/>
                    </mxGeometry>
                </mxCell>
                <mxCell id="93" value="" style="shape=tableRow;horizontal=0;startSize=0;swimlaneHead=0;swimlaneBody=0;strokeColor=inherit;top=0;left=0;bottom=0;right=0;collapsible=0;dropTarget=0;fillColor=none;points=[[0,0.5],[1,0.5]];portConstraint=eastwest;fontSize=16;" vertex="1" parent="84">
                    <mxGeometry y="133" width="300" height="67" as="geometry"/>
                </mxCell>
                <mxCell id="94" value="&lt;font style=&quot;font-size: 14px;&quot;&gt;$$\text{Obesity}=1$$&lt;/font&gt;" style="shape=partialRectangle;html=1;whiteSpace=wrap;connectable=0;strokeColor=inherit;overflow=hidden;fillColor=none;top=0;left=0;bottom=0;right=0;pointerEvents=1;fontSize=16;" vertex="1" parent="93">
                    <mxGeometry width="99" height="67" as="geometry">
                        <mxRectangle width="99" height="67" as="alternateBounds"/>
                    </mxGeometry>
                </mxCell>
                <mxCell id="95" value="&lt;span style=&quot;color: rgb(0, 0, 0);&quot;&gt;$$n_{1010}$$&lt;/span&gt;" style="shape=partialRectangle;html=1;whiteSpace=wrap;connectable=0;strokeColor=inherit;overflow=hidden;fillColor=none;top=0;left=0;bottom=0;right=0;pointerEvents=1;fontSize=16;" vertex="1" parent="93">
                    <mxGeometry x="99" width="102" height="67" as="geometry">
                        <mxRectangle width="102" height="67" as="alternateBounds"/>
                    </mxGeometry>
                </mxCell>
                <mxCell id="96" value="&lt;span style=&quot;color: rgb(0, 0, 0);&quot;&gt;$$n_{1011}$$&lt;/span&gt;" style="shape=partialRectangle;html=1;whiteSpace=wrap;connectable=0;strokeColor=inherit;overflow=hidden;fillColor=none;top=0;left=0;bottom=0;right=0;pointerEvents=1;fontSize=16;" vertex="1" parent="93">
                    <mxGeometry x="201" width="99" height="67" as="geometry">
                        <mxRectangle width="99" height="67" as="alternateBounds"/>
                    </mxGeometry>
                </mxCell>
                <mxCell id="98" value="" style="shape=table;startSize=0;container=1;collapsible=0;childLayout=tableLayout;fontSize=16;points=[[0,0,0,0,0],[0,0.25,0,0,0],[0,0.5,0,0,0],[0,0.75,0,0,0],[0,1,0,0,0],[0.25,0,0,0,0],[0.25,1,0,0,0],[0.5,0,0,0,0],[0.5,1,0,0,0],[0.75,0,0,0,0],[0.75,1,0,0,0],[1,0,0,0,0],[1,0.25,0,0,0],[1,0.5,0,0,0],[1,0.75,0,0,0],[1,1,0,0,0]];fillColor=none;gradientColor=none;perimeterSpacing=1;rounded=1;swimlaneHead=0;swimlaneBody=0;top=0;bottom=0;left=0;right=0;swimlaneFillColor=none;" vertex="1" parent="1">
                    <mxGeometry x="840" y="370" width="300" height="200" as="geometry"/>
                </mxCell>
                <mxCell id="99" value="" style="shape=tableRow;horizontal=0;startSize=0;swimlaneHead=0;swimlaneBody=0;strokeColor=inherit;top=0;left=0;bottom=0;right=0;collapsible=0;dropTarget=0;fillColor=none;points=[[0,0.5],[1,0.5]];portConstraint=eastwest;fontSize=16;" vertex="1" parent="98">
                    <mxGeometry width="300" height="67" as="geometry"/>
                </mxCell>
                <mxCell id="100" value="" style="shape=partialRectangle;html=1;whiteSpace=wrap;connectable=0;strokeColor=inherit;overflow=hidden;fillColor=none;top=0;left=0;bottom=0;right=0;pointerEvents=1;fontSize=16;" vertex="1" parent="99">
                    <mxGeometry width="99" height="67" as="geometry">
                        <mxRectangle width="99" height="67" as="alternateBounds"/>
                    </mxGeometry>
                </mxCell>
                <mxCell id="101" value="&lt;font style=&quot;font-size: 14px;&quot;&gt;$$\text{Disease}=0$$&lt;/font&gt;" style="shape=partialRectangle;html=1;whiteSpace=wrap;connectable=0;strokeColor=inherit;overflow=hidden;fillColor=none;top=0;left=0;bottom=0;right=0;pointerEvents=1;fontSize=16;" vertex="1" parent="99">
                    <mxGeometry x="99" width="102" height="67" as="geometry">
                        <mxRectangle width="102" height="67" as="alternateBounds"/>
                    </mxGeometry>
                </mxCell>
                <mxCell id="102" value="&lt;font style=&quot;font-size: 14px;&quot;&gt;$$\text{Disease}=1$$&lt;/font&gt;" style="shape=partialRectangle;html=1;whiteSpace=wrap;connectable=0;strokeColor=inherit;overflow=hidden;fillColor=none;top=0;left=0;bottom=0;right=0;pointerEvents=1;fontSize=16;" vertex="1" parent="99">
                    <mxGeometry x="201" width="99" height="67" as="geometry">
                        <mxRectangle width="99" height="67" as="alternateBounds"/>
                    </mxGeometry>
                </mxCell>
                <mxCell id="103" value="" style="shape=tableRow;horizontal=0;startSize=0;swimlaneHead=0;swimlaneBody=0;strokeColor=inherit;top=0;left=0;bottom=0;right=0;collapsible=0;dropTarget=0;fillColor=none;points=[[0,0.5],[1,0.5]];portConstraint=eastwest;fontSize=16;" vertex="1" parent="98">
                    <mxGeometry y="67" width="300" height="66" as="geometry"/>
                </mxCell>
                <mxCell id="104" value="&lt;font style=&quot;font-size: 14px;&quot;&gt;$$\text{Obesity}=0$$&lt;/font&gt;" style="shape=partialRectangle;html=1;whiteSpace=wrap;connectable=0;strokeColor=inherit;overflow=hidden;fillColor=none;top=0;left=0;bottom=0;right=0;pointerEvents=1;fontSize=16;" vertex="1" parent="103">
                    <mxGeometry width="99" height="66" as="geometry">
                        <mxRectangle width="99" height="66" as="alternateBounds"/>
                    </mxGeometry>
                </mxCell>
                <mxCell id="105" value="&lt;span style=&quot;color: rgb(0, 0, 0);&quot;&gt;$$n_{0100}$$&lt;/span&gt;" style="shape=partialRectangle;html=1;whiteSpace=wrap;connectable=0;strokeColor=inherit;overflow=hidden;fillColor=none;top=0;left=0;bottom=0;right=0;pointerEvents=1;fontSize=16;" vertex="1" parent="103">
                    <mxGeometry x="99" width="102" height="66" as="geometry">
                        <mxRectangle width="102" height="66" as="alternateBounds"/>
                    </mxGeometry>
                </mxCell>
                <mxCell id="106" value="&lt;span style=&quot;color: rgb(0, 0, 0);&quot;&gt;$$n_{0101}$$&lt;/span&gt;" style="shape=partialRectangle;html=1;whiteSpace=wrap;connectable=0;strokeColor=inherit;overflow=hidden;fillColor=none;top=0;left=0;bottom=0;right=0;pointerEvents=1;fontSize=16;" vertex="1" parent="103">
                    <mxGeometry x="201" width="99" height="66" as="geometry">
                        <mxRectangle width="99" height="66" as="alternateBounds"/>
                    </mxGeometry>
                </mxCell>
                <mxCell id="107" value="" style="shape=tableRow;horizontal=0;startSize=0;swimlaneHead=0;swimlaneBody=0;strokeColor=inherit;top=0;left=0;bottom=0;right=0;collapsible=0;dropTarget=0;fillColor=none;points=[[0,0.5],[1,0.5]];portConstraint=eastwest;fontSize=16;" vertex="1" parent="98">
                    <mxGeometry y="133" width="300" height="67" as="geometry"/>
                </mxCell>
                <mxCell id="108" value="&lt;font style=&quot;font-size: 14px;&quot;&gt;$$\text{Obesity}=1$$&lt;/font&gt;" style="shape=partialRectangle;html=1;whiteSpace=wrap;connectable=0;strokeColor=inherit;overflow=hidden;fillColor=none;top=0;left=0;bottom=0;right=0;pointerEvents=1;fontSize=16;" vertex="1" parent="107">
                    <mxGeometry width="99" height="67" as="geometry">
                        <mxRectangle width="99" height="67" as="alternateBounds"/>
                    </mxGeometry>
                </mxCell>
                <mxCell id="109" value="&lt;span style=&quot;color: rgb(0, 0, 0);&quot;&gt;$$n_{0110}$$&lt;/span&gt;" style="shape=partialRectangle;html=1;whiteSpace=wrap;connectable=0;strokeColor=inherit;overflow=hidden;fillColor=none;top=0;left=0;bottom=0;right=0;pointerEvents=1;fontSize=16;" vertex="1" parent="107">
                    <mxGeometry x="99" width="102" height="67" as="geometry">
                        <mxRectangle width="102" height="67" as="alternateBounds"/>
                    </mxGeometry>
                </mxCell>
                <mxCell id="110" value="&lt;span style=&quot;color: rgb(0, 0, 0);&quot;&gt;$$n_{0111}$$&lt;/span&gt;" style="shape=partialRectangle;html=1;whiteSpace=wrap;connectable=0;strokeColor=inherit;overflow=hidden;fillColor=none;top=0;left=0;bottom=0;right=0;pointerEvents=1;fontSize=16;" vertex="1" parent="107">
                    <mxGeometry x="201" width="99" height="67" as="geometry">
                        <mxRectangle width="99" height="67" as="alternateBounds"/>
                    </mxGeometry>
                </mxCell>
                <mxCell id="126" value="" style="shape=table;startSize=0;container=1;collapsible=0;childLayout=tableLayout;fontSize=16;points=[[0,0,0,0,0],[0,0.25,0,0,0],[0,0.5,0,0,0],[0,0.75,0,0,0],[0,1,0,0,0],[0.25,0,0,0,0],[0.25,1,0,0,0],[0.5,0,0,0,0],[0.5,1,0,0,0],[0.75,0,0,0,0],[0.75,1,0,0,0],[1,0,0,0,0],[1,0.25,0,0,0],[1,0.5,0,0,0],[1,0.75,0,0,0],[1,1,0,0,0]];fillColor=none;gradientColor=none;perimeterSpacing=1;rounded=1;swimlaneHead=0;swimlaneBody=0;top=0;bottom=0;left=0;right=0;swimlaneFillColor=none;" vertex="1" parent="1">
                    <mxGeometry x="1210" y="370" width="300" height="200" as="geometry"/>
                </mxCell>
                <mxCell id="127" value="" style="shape=tableRow;horizontal=0;startSize=0;swimlaneHead=0;swimlaneBody=0;strokeColor=inherit;top=0;left=0;bottom=0;right=0;collapsible=0;dropTarget=0;fillColor=none;points=[[0,0.5],[1,0.5]];portConstraint=eastwest;fontSize=16;" vertex="1" parent="126">
                    <mxGeometry width="300" height="67" as="geometry"/>
                </mxCell>
                <mxCell id="128" value="" style="shape=partialRectangle;html=1;whiteSpace=wrap;connectable=0;strokeColor=inherit;overflow=hidden;fillColor=none;top=0;left=0;bottom=0;right=0;pointerEvents=1;fontSize=16;" vertex="1" parent="127">
                    <mxGeometry width="99" height="67" as="geometry">
                        <mxRectangle width="99" height="67" as="alternateBounds"/>
                    </mxGeometry>
                </mxCell>
                <mxCell id="129" value="&lt;font style=&quot;font-size: 14px;&quot;&gt;$$\text{Disease}=0$$&lt;/font&gt;" style="shape=partialRectangle;html=1;whiteSpace=wrap;connectable=0;strokeColor=inherit;overflow=hidden;fillColor=none;top=0;left=0;bottom=0;right=0;pointerEvents=1;fontSize=16;" vertex="1" parent="127">
                    <mxGeometry x="99" width="102" height="67" as="geometry">
                        <mxRectangle width="102" height="67" as="alternateBounds"/>
                    </mxGeometry>
                </mxCell>
                <mxCell id="130" value="&lt;font style=&quot;font-size: 14px;&quot;&gt;$$\text{Disease}=1$$&lt;/font&gt;" style="shape=partialRectangle;html=1;whiteSpace=wrap;connectable=0;strokeColor=inherit;overflow=hidden;fillColor=none;top=0;left=0;bottom=0;right=0;pointerEvents=1;fontSize=16;" vertex="1" parent="127">
                    <mxGeometry x="201" width="99" height="67" as="geometry">
                        <mxRectangle width="99" height="67" as="alternateBounds"/>
                    </mxGeometry>
                </mxCell>
                <mxCell id="131" value="" style="shape=tableRow;horizontal=0;startSize=0;swimlaneHead=0;swimlaneBody=0;strokeColor=inherit;top=0;left=0;bottom=0;right=0;collapsible=0;dropTarget=0;fillColor=none;points=[[0,0.5],[1,0.5]];portConstraint=eastwest;fontSize=16;" vertex="1" parent="126">
                    <mxGeometry y="67" width="300" height="66" as="geometry"/>
                </mxCell>
                <mxCell id="132" value="&lt;font style=&quot;font-size: 14px;&quot;&gt;$$\text{Obesity}=0$$&lt;/font&gt;" style="shape=partialRectangle;html=1;whiteSpace=wrap;connectable=0;strokeColor=inherit;overflow=hidden;fillColor=none;top=0;left=0;bottom=0;right=0;pointerEvents=1;fontSize=16;" vertex="1" parent="131">
                    <mxGeometry width="99" height="66" as="geometry">
                        <mxRectangle width="99" height="66" as="alternateBounds"/>
                    </mxGeometry>
                </mxCell>
                <mxCell id="133" value="&lt;span style=&quot;color: rgb(0, 0, 0);&quot;&gt;$$n_{0000}$$&lt;/span&gt;" style="shape=partialRectangle;html=1;whiteSpace=wrap;connectable=0;strokeColor=inherit;overflow=hidden;fillColor=none;top=0;left=0;bottom=0;right=0;pointerEvents=1;fontSize=16;" vertex="1" parent="131">
                    <mxGeometry x="99" width="102" height="66" as="geometry">
                        <mxRectangle width="102" height="66" as="alternateBounds"/>
                    </mxGeometry>
                </mxCell>
                <mxCell id="134" value="&lt;span style=&quot;color: rgb(0, 0, 0);&quot;&gt;$$n_{0001}$$&lt;/span&gt;" style="shape=partialRectangle;html=1;whiteSpace=wrap;connectable=0;strokeColor=inherit;overflow=hidden;fillColor=none;top=0;left=0;bottom=0;right=0;pointerEvents=1;fontSize=16;" vertex="1" parent="131">
                    <mxGeometry x="201" width="99" height="66" as="geometry">
                        <mxRectangle width="99" height="66" as="alternateBounds"/>
                    </mxGeometry>
                </mxCell>
                <mxCell id="135" value="" style="shape=tableRow;horizontal=0;startSize=0;swimlaneHead=0;swimlaneBody=0;strokeColor=inherit;top=0;left=0;bottom=0;right=0;collapsible=0;dropTarget=0;fillColor=none;points=[[0,0.5],[1,0.5]];portConstraint=eastwest;fontSize=16;" vertex="1" parent="126">
                    <mxGeometry y="133" width="300" height="67" as="geometry"/>
                </mxCell>
                <mxCell id="136" value="&lt;font style=&quot;font-size: 14px;&quot;&gt;$$\text{Obesity}=1$$&lt;/font&gt;" style="shape=partialRectangle;html=1;whiteSpace=wrap;connectable=0;strokeColor=inherit;overflow=hidden;fillColor=none;top=0;left=0;bottom=0;right=0;pointerEvents=1;fontSize=16;" vertex="1" parent="135">
                    <mxGeometry width="99" height="67" as="geometry">
                        <mxRectangle width="99" height="67" as="alternateBounds"/>
                    </mxGeometry>
                </mxCell>
                <mxCell id="137" value="&lt;span style=&quot;color: rgb(0, 0, 0);&quot;&gt;$$n_{0010}$$&lt;/span&gt;" style="shape=partialRectangle;html=1;whiteSpace=wrap;connectable=0;strokeColor=inherit;overflow=hidden;fillColor=none;top=0;left=0;bottom=0;right=0;pointerEvents=1;fontSize=16;" vertex="1" parent="135">
                    <mxGeometry x="99" width="102" height="67" as="geometry">
                        <mxRectangle width="102" height="67" as="alternateBounds"/>
                    </mxGeometry>
                </mxCell>
                <mxCell id="138" value="&lt;span style=&quot;color: rgb(0, 0, 0);&quot;&gt;$$n_{0011}$$&lt;/span&gt;" style="shape=partialRectangle;html=1;whiteSpace=wrap;connectable=0;strokeColor=inherit;overflow=hidden;fillColor=none;top=0;left=0;bottom=0;right=0;pointerEvents=1;fontSize=16;" vertex="1" parent="135">
                    <mxGeometry x="201" width="99" height="67" as="geometry">
                        <mxRectangle width="99" height="67" as="alternateBounds"/>
                    </mxGeometry>
                </mxCell>
            </root>
        </mxGraphModel>
    </diagram>
</mxfile>